<svg id="e4d25909-9330-4a06-b6a6-3ac2c1b2ddbf" data-name="Ebene 1" xmlns="http://www.w3.org/2000/svg" viewBox="0 0 271.76 272.66"><path d="M1009.45,585.93c20.7,3,35.66,13.28,44.23,32.8-.84.07-1.28.15-1.72.15-5,0-10,0-15.06,0a2.3,2.3,0,0,1-2.15-1.1c-7.23-10.15-17-15.45-29.54-15.34-3.59,0-7.18-.06-10.77,0a4.76,4.76,0,0,0-2.6.92c-15.05,11.69-32,17.06-51,14.87-11.7-1.34-22.24-6-31.78-12.71a16,16,0,0,0-10.61-3.19c-5.17.25-10.35,0-15.37,1.62-13,4.28-22.21,15.76-22.68,29.55-.41,12.29-.43,24.61.06,36.89.65,16.26,14.78,29.73,31,30.32,1.12,0,2.25.05,3.38.05H1006v16.25c-.45,0-.89.09-1.33.09-37.63,0-75.25.09-112.88,0a47.75,47.75,0,0,1-47.61-44.29c-.39-4.84-.26-9.73-.28-14.59,0-8.15-.1-16.31,0-24.45.36-21.76,16.27-41.53,37.4-46.5,3.17-.74,6.46-1,9.83-1.47-.48-.84-1-1.79-1.57-2.75C882.66,570.91,877.87,558,877,544c-2-31.58,8.22-58.1,34.55-76.9,22.82-16.29,54-16.16,77.2-.32,17.08,11.66,27.58,27.93,32.57,47.8,6.21,24.72,1.66,47.84-10.9,69.67C1010.12,584.78,1009.82,585.31,1009.45,585.93Zm-1.84-49c0-.62,0-1.23,0-1.85-.73-20-7.9-37-23-50.38a50.67,50.67,0,0,0-28.81-13c-16.6-1.74-30.68,3.95-42.44,15.4-12.34,12-18.85,26.91-20.11,44-1.51,20.41,4.24,38.52,18.22,53.67,8.79,9.52,19.61,15.64,32.61,17.22,16.75,2,31-3.6,43-15.16C1001.1,573.28,1007.31,556.28,1007.61,537Z" transform="translate(-843.8 -454.9)"/><path d="M1071.7,727.56h-16.44a6,6,0,0,1-6-6v-2.45a.89.89,0,0,0-.52-.84,44.73,44.73,0,0,1-5.07-2.1.84.84,0,0,0-.93.21l-1.75,1.75a6,6,0,0,1-8.51,0l-11.62-11.62a6,6,0,0,1,0-8.51l1.75-1.76a.83.83,0,0,0,.21-.92,45.5,45.5,0,0,1-2.1-5.07.89.89,0,0,0-.84-.52h-2.45a6,6,0,0,1-6-6V667.25a6,6,0,0,1,6-6h2.45a.89.89,0,0,0,.84-.52,44.58,44.58,0,0,1,2.1-5.06.84.84,0,0,0-.21-.93l-1.75-1.76a6,6,0,0,1,0-8.51l11.62-11.62a6,6,0,0,1,8.51,0l1.76,1.75a.82.82,0,0,0,.92.21,44.73,44.73,0,0,1,5.07-2.1.89.89,0,0,0,.52-.84V629.4a6,6,0,0,1,6-6h16.44a6,6,0,0,1,6,6v2.45a.88.88,0,0,0,.53.84,45.35,45.35,0,0,1,5.06,2.1.82.82,0,0,0,.93-.21l1.76-1.75a6,6,0,0,1,8.51,0l11.62,11.62a6,6,0,0,1,0,8.51l-1.76,1.76a.84.84,0,0,0-.21.93,42.89,42.89,0,0,1,2.11,5.06.87.87,0,0,0,.84.52h2.44a6,6,0,0,1,6,6v16.44a6,6,0,0,1-6,6h-2.44a.88.88,0,0,0-.84.52,45.35,45.35,0,0,1-2.1,5.06.85.85,0,0,0,.2.93l1.76,1.76a6,6,0,0,1,0,8.51l-11.62,11.62a6,6,0,0,1-8.52,0l-1.75-1.75a.84.84,0,0,0-.93-.21,45.35,45.35,0,0,1-5.06,2.1.88.88,0,0,0-.53.84v2.45A6,6,0,0,1,1071.7,727.56Zm-14.36-8.11h12.27v-.36a9,9,0,0,1,6-8.5,35.72,35.72,0,0,0,4.16-1.72,8.92,8.92,0,0,1,10.21,1.76l.28.28,8.67-8.68-.28-.28a8.9,8.9,0,0,1-1.75-10.21,36.31,36.31,0,0,0,1.72-4.15,9,9,0,0,1,8.5-6h.36V669.34h-.36a9,9,0,0,1-8.5-6,35.72,35.72,0,0,0-1.72-4.16,8.9,8.9,0,0,1,1.76-10.21l.28-.28-8.68-8.68-.28.28a8.9,8.9,0,0,1-10.21,1.76,35.72,35.72,0,0,0-4.16-1.72,9,9,0,0,1-6-8.5v-.36h-12.27v.36a9,9,0,0,1-6,8.5,35.58,35.58,0,0,0-4.15,1.72,8.92,8.92,0,0,1-10.22-1.76l-.28-.28-8.67,8.68.28.28a8.92,8.92,0,0,1,1.76,10.21,38.29,38.29,0,0,0-1.73,4.15,9,9,0,0,1-8.49,6h-.37v12.27h.37a9,9,0,0,1,8.49,6,38.29,38.29,0,0,0,1.73,4.15,8.92,8.92,0,0,1-1.76,10.21l-.28.28,8.67,8.68.28-.28a8.92,8.92,0,0,1,10.22-1.76,35.58,35.58,0,0,0,4.15,1.72,9,9,0,0,1,6,8.5v.36Zm6.17-14.58a29.33,29.33,0,1,1,2.34-.09h0Q1064.68,704.87,1063.51,704.87Zm-.07-50.7c-.56,0-1.13,0-1.7.07a21.3,21.3,0,0,0,3.48,42.46h0a21.3,21.3,0,0,0-1.78-42.53Z" transform="translate(-843.8 -454.9)"/></svg>